<svg width="46" height="46" viewBox="0 0 46 46" fill="none" xmlns="http://www.w3.org/2000/svg">
<path d="M39.1721 21.293H12.8883L28.6199 7.63672C28.8715 7.4166 28.7188 7.00781 28.3863 7.00781H24.4108C24.2356 7.00781 24.0693 7.0707 23.9391 7.18301L6.9631 21.9129C6.80762 22.0477 6.68292 22.2143 6.59746 22.4015C6.512 22.5886 6.46777 22.792 6.46777 22.9978C6.46777 23.2035 6.512 23.4069 6.59746 23.594C6.68292 23.7812 6.80762 23.9478 6.9631 24.0826L24.0379 38.9023C24.1053 38.9607 24.1861 38.9922 24.2715 38.9922H28.3818C28.7143 38.9922 28.867 38.5789 28.6154 38.3633L12.8883 24.707H39.1721C39.3697 24.707 39.5315 24.5453 39.5315 24.3477V21.6523C39.5315 21.4547 39.3697 21.293 39.1721 21.293Z" fill="#635343" fill-opacity="0.3"/>
</svg>
