<svg width="46" height="46" viewBox="0 0 46 46" fill="none" xmlns="http://www.w3.org/2000/svg">
<path d="M39.0371 21.9129L22.0656 7.18301C21.9354 7.0707 21.7691 7.00781 21.5939 7.00781H17.6184C17.2859 7.00781 17.1332 7.42109 17.3848 7.63672L33.1164 21.293H6.82813C6.63047 21.293 6.46875 21.4547 6.46875 21.6523V24.3477C6.46875 24.5453 6.63047 24.707 6.82813 24.707H33.1119L17.3803 38.3633C17.1287 38.5834 17.2814 38.9922 17.6139 38.9922H21.7242C21.8096 38.9922 21.8949 38.9607 21.9578 38.9023L39.0371 24.0871C39.1926 23.9519 39.3173 23.7849 39.4028 23.5973C39.4882 23.4098 39.5324 23.2061 39.5324 23C39.5324 22.7939 39.4882 22.5902 39.4028 22.4027C39.3173 22.2151 39.1926 22.0481 39.0371 21.9129V21.9129Z" fill="#635343"/>
</svg>
