<svg width="24" height="24" viewBox="0 0 24 24" fill="none" xmlns="http://www.w3.org/2000/svg">
<path d="M18.75 9.75C18.75 7.95979 18.0388 6.2429 16.773 4.97703C15.5071 3.71116 13.7902 3 12 3C10.2098 3 8.4929 3.71116 7.22703 4.97703C5.96116 6.2429 5.25 7.95979 5.25 9.75C5.25 12.519 7.4655 16.128 12 20.451C16.5345 16.128 18.75 12.519 18.75 9.75ZM12 22.5C6.4995 17.5005 3.75 13.2495 3.75 9.75C3.75 7.56196 4.61919 5.46354 6.16637 3.91637C7.71354 2.36919 9.81196 1.5 12 1.5C14.188 1.5 16.2865 2.36919 17.8336 3.91637C19.3808 5.46354 20.25 7.56196 20.25 9.75C20.25 13.2495 17.5005 17.5005 12 22.5Z" fill="white"/>
<circle cx="12" cy="9" r="1" fill="white"/>
</svg>
