<svg width="56" height="56" viewBox="0 0 56 56" fill="none" xmlns="http://www.w3.org/2000/svg">
<path d="M28.4991 27.5L19.3486 36.7997L28.4991 46.1988V27.5Z" fill="#CE3974"/>
<path d="M46.8009 9L37.6504 18.2997L46.8009 27.6988V9Z" fill="#F7D54C"/>
<path d="M28.4999 27.5L37.6504 36.7997L28.4999 46.1988V27.5Z" fill="#DE615B"/>
<path d="M10.1981 9L19.3486 18.2997L10.1981 27.6988V9Z" fill="#75308C"/>
<path d="M47 27.6986L37.7003 36.8491L28.3012 27.6986L47 27.6986Z" fill="#E58553"/>
<path d="M47 27.6987L37.7003 18.1504L28.3012 27.6987L47 27.6987Z" fill="#F1AC48"/>
<path d="M28.6992 27.6986L19.3995 36.8491L10.0004 27.6986L28.6992 27.6986Z" fill="#B1327E"/>
<path d="M38.0488 8.9999L28.7491 18.1504L19.35 8.9999L38.0488 8.9999Z" fill="#593992"/>
<path d="M28.6992 27.6987L19.3995 18.1504L10.0004 27.6987L28.6992 27.6987Z" fill="#92308A"/>
</svg>
