<svg width="36" height="36" viewBox="0 0 36 36" fill="none" xmlns="http://www.w3.org/2000/svg">
<g clip-path="url(#clip0_46_931)">
<path d="M18 13.7734C17.1523 13.7737 16.3238 14.0264 15.6191 14.4997C14.9145 14.9729 14.3653 15.6453 14.0412 16.432C13.717 17.2186 13.6323 18.0841 13.7979 18.9191C13.9635 19.7541 14.3718 20.521 14.9713 21.1228C15.5708 21.7247 16.3346 22.1346 17.166 22.3005C17.9974 22.4665 18.8591 22.3812 19.6423 22.0553C20.4254 21.7294 21.0947 21.1777 21.5656 20.4698C22.0365 19.7619 22.2879 18.9296 22.2879 18.0783C22.287 16.9365 21.8349 15.8418 21.0309 15.0346C20.2269 14.2274 19.1368 13.7738 18 13.7734ZM28.0213 10.4644C27.8031 9.90902 27.4736 9.40459 27.0533 8.9824C26.6329 8.56021 26.1307 8.22928 25.5777 8.01012C23.8902 7.34106 19.8723 7.49118 18 7.49118C16.1277 7.49118 12.1138 7.33542 10.4215 8.01012C9.86853 8.22928 9.36628 8.56021 8.94592 8.9824C8.52556 9.40459 8.19606 9.90902 7.97786 10.4644C7.3125 12.1592 7.46116 16.1986 7.46116 18.0775C7.46116 19.9563 7.3125 23.9908 7.98107 25.6913C8.19928 26.2467 8.52878 26.7511 8.94914 27.1733C9.3695 27.5955 9.87175 27.9264 10.4247 28.1456C12.1122 28.8146 16.1301 28.6645 18.0032 28.6645C19.8763 28.6645 23.8886 28.8203 25.5809 28.1456C26.1339 27.9264 26.6361 27.5955 27.0565 27.1733C27.4768 26.7511 27.8063 26.2467 28.0246 25.6913C28.6955 23.9965 28.5413 19.9571 28.5413 18.0783C28.5413 16.1994 28.6955 12.1657 28.0246 10.4652L28.0213 10.4644ZM18 24.6962C16.6968 24.6962 15.4228 24.3081 14.3392 23.5809C13.2556 22.8537 12.411 21.8201 11.9123 20.6108C11.4136 19.4016 11.2831 18.0709 11.5373 16.7872C11.7916 15.5034 12.4191 14.3242 13.3407 13.3987C14.2622 12.4731 15.4363 11.8428 16.7145 11.5875C17.9927 11.3321 19.3176 11.4632 20.5216 11.9641C21.7256 12.465 22.7548 13.3132 23.4788 14.4015C24.2028 15.4898 24.5893 16.7694 24.5893 18.0783C24.5903 18.9476 24.4206 19.8087 24.0899 20.6121C23.7591 21.4155 23.2738 22.1455 22.6617 22.7602C22.0496 23.375 21.3228 23.8624 20.5229 24.1946C19.7229 24.5268 18.8656 24.6973 18 24.6962ZM24.8609 12.7274C24.5567 12.7276 24.2592 12.6371 24.0062 12.4675C23.7532 12.2978 23.5559 12.0566 23.4394 11.7744C23.3228 11.4921 23.2923 11.1815 23.3515 10.8818C23.4108 10.5821 23.5572 10.3068 23.7722 10.0907C23.9873 9.87458 24.2614 9.72738 24.5597 9.66771C24.8581 9.60804 25.1674 9.63859 25.4485 9.75548C25.7296 9.87237 25.9698 10.0704 26.1389 10.3244C26.3079 10.5785 26.3981 10.8771 26.3981 11.1827C26.399 11.3856 26.3599 11.5867 26.2832 11.7744C26.2065 11.9621 26.0937 12.1328 25.9511 12.2766C25.8086 12.4204 25.6392 12.5345 25.4527 12.6125C25.2662 12.6904 25.0661 12.7305 24.8641 12.7306L24.8609 12.7274ZM32.1429 0H3.85714C2.83416 0 1.85309 0.408143 1.12973 1.13464C0.406376 1.86114 0 2.84649 0 3.87391L0 32.2826C0 33.31 0.406376 34.2954 1.12973 35.0219C1.85309 35.7484 2.83416 36.1565 3.85714 36.1565H32.1429C33.1658 36.1565 34.1469 35.7484 34.8703 35.0219C35.5936 34.2954 36 33.31 36 32.2826V3.87391C36 2.84649 35.5936 1.86114 34.8703 1.13464C34.1469 0.408143 33.1658 0 32.1429 0ZM30.7671 23.4049C30.6635 25.4734 30.1934 27.3062 28.6899 28.8122C27.1864 30.3182 25.3631 30.8 23.306 30.8985C21.1838 31.0187 14.8211 31.0187 12.6988 30.8985C10.6393 30.7944 8.8208 30.3214 7.31491 28.8122C5.80902 27.303 5.33571 25.4694 5.23768 23.4049C5.11795 21.2726 5.11795 14.8815 5.23768 12.7516C5.34134 10.6831 5.8058 8.85028 7.31491 7.34429C8.82402 5.83831 10.6473 5.36214 12.6988 5.26368C14.8211 5.14343 21.1838 5.14343 23.306 5.26368C25.3655 5.36779 27.1896 5.84073 28.6899 7.34994C30.1902 8.85915 30.6691 10.6928 30.7671 12.7613C30.8869 14.8855 30.8869 21.271 30.7671 23.4049Z" fill="#635343"/>
</g>
<defs>
<clipPath id="clip0_46_931">
<rect width="36" height="36" rx="18" fill="white"/>
</clipPath>
</defs>
</svg>
