<svg width="151" height="42" viewBox="0 0 151 42" fill="none" xmlns="http://www.w3.org/2000/svg">
<path d="M20.625 20.6251L11.9072 29.4851L20.625 38.4398V20.6251Z" fill="#CE3974"/>
<path d="M38.0606 3L29.3428 11.8599L38.0606 20.8146V3Z" fill="#F7D54C"/>
<path d="M20.625 20.6251L29.3428 29.4851L20.625 38.4398V20.6251Z" fill="#DE615B"/>
<path d="M3.18942 3L11.9072 11.8599L3.18942 20.8146V3Z" fill="#75308C"/>
<path d="M38.2505 20.8147L29.3905 29.5325L20.4358 20.8147L38.2505 20.8147Z" fill="#E58553"/>
<path d="M38.2505 20.8147L29.3905 11.7179L20.4358 20.8147L38.2505 20.8147Z" fill="#F1AC48"/>
<path d="M20.8145 20.8147L11.9545 29.5325L2.99981 20.8147L20.8145 20.8147Z" fill="#B1327E"/>
<path d="M29.7222 3.00009L20.8622 11.7179L11.9075 3.00009L29.7222 3.00009Z" fill="#593992"/>
<path d="M20.8145 20.8147L11.9545 11.7179L2.99981 20.8147L20.8145 20.8147Z" fill="#92308A"/>
<path d="M62.5282 9.39999L56.9482 22H55.6342L50.0542 9.39999H51.4942L56.3182 20.344L61.1782 9.39999H62.5282ZM64.3569 9.39999H65.6889V22H64.3569V9.39999ZM77.6905 22L73.6225 16.456L69.5725 22H68.0425L72.8305 15.52L68.3485 9.39999H69.8785L73.6765 14.548L77.4565 9.39999H78.8965L74.4325 15.484L79.2385 22H77.6905ZM86.312 9.39999H91.442C92.774 9.39999 93.95 9.66999 94.97 10.21C95.99 10.738 96.782 11.482 97.346 12.442C97.91 13.39 98.192 14.476 98.192 15.7C98.192 16.924 97.91 18.016 97.346 18.976C96.782 19.924 95.99 20.668 94.97 21.208C93.95 21.736 92.774 22 91.442 22H86.312V9.39999ZM91.37 20.848C92.474 20.848 93.44 20.632 94.268 20.2C95.096 19.756 95.738 19.15 96.194 18.382C96.65 17.602 96.878 16.708 96.878 15.7C96.878 14.692 96.65 13.804 96.194 13.036C95.738 12.256 95.096 11.65 94.268 11.218C93.44 10.774 92.474 10.552 91.37 10.552H87.644V20.848H91.37ZM110.093 20.848V22H101.183V9.39999H109.823V10.552H102.515V15.034H109.031V16.168H102.515V20.848H110.093ZM118.626 22.108C117.378 22.108 116.25 21.832 115.242 21.28C114.246 20.728 113.46 19.966 112.884 18.994C112.32 18.01 112.038 16.912 112.038 15.7C112.038 14.488 112.32 13.396 112.884 12.424C113.46 11.44 114.252 10.672 115.26 10.12C116.268 9.56799 117.396 9.29199 118.644 9.29199C119.58 9.29199 120.444 9.44799 121.236 9.75999C122.028 10.072 122.7 10.528 123.252 11.128L122.406 11.974C121.422 10.978 120.18 10.48 118.68 10.48C117.684 10.48 116.778 10.708 115.962 11.164C115.146 11.62 114.504 12.244 114.036 13.036C113.58 13.828 113.352 14.716 113.352 15.7C113.352 16.684 113.58 17.572 114.036 18.364C114.504 19.156 115.146 19.78 115.962 20.236C116.778 20.692 117.684 20.92 118.68 20.92C120.192 20.92 121.434 20.416 122.406 19.408L123.252 20.254C122.7 20.854 122.022 21.316 121.218 21.64C120.426 21.952 119.562 22.108 118.626 22.108ZM131.336 22.108C130.088 22.108 128.954 21.832 127.934 21.28C126.926 20.716 126.134 19.948 125.558 18.976C124.994 18.004 124.712 16.912 124.712 15.7C124.712 14.488 124.994 13.396 125.558 12.424C126.134 11.452 126.926 10.69 127.934 10.138C128.954 9.57399 130.088 9.29199 131.336 9.29199C132.584 9.29199 133.706 9.56799 134.702 10.12C135.71 10.672 136.502 11.44 137.078 12.424C137.654 13.396 137.942 14.488 137.942 15.7C137.942 16.912 137.654 18.01 137.078 18.994C136.502 19.966 135.71 20.728 134.702 21.28C133.706 21.832 132.584 22.108 131.336 22.108ZM131.336 20.92C132.332 20.92 133.232 20.698 134.036 20.254C134.84 19.798 135.47 19.174 135.926 18.382C136.382 17.578 136.61 16.684 136.61 15.7C136.61 14.716 136.382 13.828 135.926 13.036C135.47 12.232 134.84 11.608 134.036 11.164C133.232 10.708 132.332 10.48 131.336 10.48C130.34 10.48 129.434 10.708 128.618 11.164C127.814 11.608 127.178 12.232 126.71 13.036C126.254 13.828 126.026 14.716 126.026 15.7C126.026 16.684 126.254 17.578 126.71 18.382C127.178 19.174 127.814 19.798 128.618 20.254C129.434 20.698 130.34 20.92 131.336 20.92ZM149.531 22L146.651 17.95C146.327 17.986 145.991 18.004 145.643 18.004H142.259V22H140.927V9.39999H145.643C147.251 9.39999 148.511 9.78399 149.423 10.552C150.335 11.32 150.791 12.376 150.791 13.72C150.791 14.704 150.539 15.538 150.035 16.222C149.543 16.894 148.835 17.38 147.911 17.68L150.989 22H149.531ZM145.607 16.87C146.855 16.87 147.809 16.594 148.469 16.042C149.129 15.49 149.459 14.716 149.459 13.72C149.459 12.7 149.129 11.92 148.469 11.38C147.809 10.828 146.855 10.552 145.607 10.552H142.259V16.87H145.607Z" fill="white"/>
<path d="M57.0225 27.1714H57.5933V32.5714H57.0225V27.1714ZM63.8631 27.1714V32.5714H63.3926L59.9212 28.1897V32.5714H59.3503V27.1714H59.8209L63.3 31.5531V27.1714H63.8631ZM67.1145 32.6177C66.7134 32.6177 66.3277 32.5534 65.9574 32.4248C65.5923 32.2963 65.3094 32.1266 65.1088 31.9157L65.3325 31.476C65.528 31.6714 65.7877 31.8308 66.1117 31.9543C66.4357 32.0726 66.77 32.1317 67.1145 32.1317C67.598 32.1317 67.9605 32.0443 68.2023 31.8694C68.444 31.6894 68.5648 31.458 68.5648 31.1751C68.5648 30.9591 68.498 30.7868 68.3643 30.6583C68.2357 30.5297 68.0763 30.432 67.886 30.3651C67.6957 30.2931 67.4308 30.216 67.0914 30.1337C66.6851 30.0308 66.3611 29.9331 66.1194 29.8406C65.8777 29.7428 65.6694 29.5963 65.4945 29.4008C65.3248 29.2054 65.24 28.9406 65.24 28.6063C65.24 28.3337 65.312 28.0868 65.456 27.8657C65.6 27.6394 65.8211 27.4594 66.1194 27.3257C66.4177 27.192 66.788 27.1251 67.2303 27.1251C67.5388 27.1251 67.8397 27.1688 68.1328 27.2563C68.4311 27.3386 68.6883 27.4543 68.9043 27.6034L68.7114 28.0586C68.4851 27.9094 68.2434 27.7988 67.9863 27.7268C67.7291 27.6497 67.4771 27.6111 67.2303 27.6111C66.7571 27.6111 66.3997 27.7037 66.158 27.8888C65.9214 28.0688 65.8031 28.3028 65.8031 28.5908C65.8031 28.8068 65.8674 28.9817 65.996 29.1154C66.1297 29.244 66.2943 29.3443 66.4897 29.4163C66.6903 29.4831 66.9577 29.5577 67.292 29.64C67.688 29.7377 68.0068 29.8354 68.2485 29.9331C68.4954 30.0257 68.7037 30.1697 68.8734 30.3651C69.0431 30.5554 69.128 30.8151 69.128 31.1443C69.128 31.4168 69.0534 31.6663 68.9043 31.8926C68.7603 32.1137 68.5365 32.2911 68.2331 32.4248C67.9297 32.5534 67.5568 32.6177 67.1145 32.6177ZM72.3929 27.1714C73.0821 27.1714 73.6221 27.336 74.0129 27.6651C74.4038 27.9943 74.5992 28.4468 74.5992 29.0228C74.5992 29.5988 74.4038 30.0514 74.0129 30.3806C73.6221 30.7046 73.0821 30.8666 72.3929 30.8666H70.9426V32.5714H70.3718V27.1714H72.3929ZM72.3775 30.3651C72.9123 30.3651 73.3212 30.2494 73.6041 30.018C73.8869 29.7814 74.0283 29.4497 74.0283 29.0228C74.0283 28.5857 73.8869 28.2514 73.6041 28.02C73.3212 27.7834 72.9123 27.6651 72.3775 27.6651H70.9426V30.3651H72.3775ZM75.8336 27.1714H76.4044V32.5714H75.8336V27.1714ZM81.8488 32.5714L80.6145 30.8357C80.4757 30.8511 80.3317 30.8588 80.1825 30.8588H78.7323V32.5714H78.1614V27.1714H80.1825C80.8717 27.1714 81.4117 27.336 81.8025 27.6651C82.1934 27.9943 82.3888 28.4468 82.3888 29.0228C82.3888 29.4446 82.2808 29.802 82.0648 30.0951C81.854 30.3831 81.5505 30.5914 81.1545 30.72L82.4737 32.5714H81.8488ZM80.1671 30.3728C80.702 30.3728 81.1108 30.2546 81.3937 30.018C81.6765 29.7814 81.818 29.4497 81.818 29.0228C81.818 28.5857 81.6765 28.2514 81.3937 28.02C81.1108 27.7834 80.702 27.6651 80.1671 27.6651H78.7323V30.3728H80.1671ZM87.5547 32.0777V32.5714H83.7362V27.1714H87.439V27.6651H84.307V29.586H87.0996V30.072H84.307V32.0777H87.5547ZM90.9156 27.1714H91.4865V32.5714H90.9156V27.1714ZM98.8517 27.1714V32.5714H98.304V28.2514L96.1826 31.8848H95.9126L93.7911 28.2746V32.5714H93.2434V27.1714H93.714L96.0591 31.1751L98.3811 27.1714H98.8517ZM103.998 31.1288H100.989L100.341 32.5714H99.7472L102.216 27.1714H102.779L105.247 32.5714H104.646L103.998 31.1288ZM103.789 30.666L102.493 27.7654L101.197 30.666H103.789ZM109.869 29.8714H110.416V31.9311C110.164 32.1523 109.866 32.322 109.522 32.4403C109.177 32.5586 108.814 32.6177 108.434 32.6177C107.894 32.6177 107.408 32.4994 106.976 32.2628C106.544 32.0263 106.204 31.6997 105.958 31.2831C105.711 30.8614 105.587 30.3908 105.587 29.8714C105.587 29.352 105.711 28.884 105.958 28.4674C106.204 28.0457 106.544 27.7166 106.976 27.48C107.408 27.2434 107.896 27.1251 108.442 27.1251C108.853 27.1251 109.231 27.192 109.576 27.3257C109.92 27.4543 110.211 27.6471 110.447 27.9043L110.092 28.2668C109.666 27.8451 109.123 27.6343 108.465 27.6343C108.028 27.6343 107.632 27.732 107.277 27.9274C106.927 28.1177 106.652 28.3851 106.451 28.7297C106.251 29.0691 106.15 29.4497 106.15 29.8714C106.15 30.2931 106.251 30.6737 106.451 31.0131C106.652 31.3526 106.927 31.62 107.277 31.8154C107.626 32.0108 108.02 32.1086 108.457 32.1086C109.012 32.1086 109.483 31.9697 109.869 31.692V29.8714ZM112.032 27.1714H112.603V32.5714H112.032V27.1714ZM118.873 27.1714V32.5714H118.402L114.931 28.1897V32.5714H114.36V27.1714H114.83L118.309 31.5531V27.1714H118.873ZM124.022 31.1288H121.013L120.365 32.5714H119.771L122.24 27.1714H122.803L125.272 32.5714H124.67L124.022 31.1288ZM123.814 30.666L122.518 27.7654L121.222 30.666H123.814ZM126.943 27.6651H125.045V27.1714H129.411V27.6651H127.513V32.5714H126.943V27.6651ZM130.323 27.1714H130.894V32.5714H130.323V27.1714ZM135.012 32.6177C134.477 32.6177 133.991 32.4994 133.554 32.2628C133.122 32.0211 132.782 31.692 132.535 31.2754C132.294 30.8588 132.173 30.3908 132.173 29.8714C132.173 29.352 132.294 28.884 132.535 28.4674C132.782 28.0508 133.122 27.7243 133.554 27.4877C133.991 27.246 134.477 27.1251 135.012 27.1251C135.547 27.1251 136.027 27.2434 136.454 27.48C136.886 27.7166 137.226 28.0457 137.473 28.4674C137.719 28.884 137.843 29.352 137.843 29.8714C137.843 30.3908 137.719 30.8614 137.473 31.2831C137.226 31.6997 136.886 32.0263 136.454 32.2628C136.027 32.4994 135.547 32.6177 135.012 32.6177ZM135.012 32.1086C135.439 32.1086 135.824 32.0134 136.169 31.8231C136.513 31.6277 136.783 31.3603 136.979 31.0208C137.174 30.6763 137.272 30.2931 137.272 29.8714C137.272 29.4497 137.174 29.0691 136.979 28.7297C136.783 28.3851 136.513 28.1177 136.169 27.9274C135.824 27.732 135.439 27.6343 135.012 27.6343C134.585 27.6343 134.197 27.732 133.847 27.9274C133.502 28.1177 133.23 28.3851 133.029 28.7297C132.834 29.0691 132.736 29.4497 132.736 29.8714C132.736 30.2931 132.834 30.6763 133.029 31.0208C133.23 31.3603 133.502 31.6277 133.847 31.8231C134.197 32.0134 134.585 32.1086 135.012 32.1086ZM143.635 27.1714V32.5714H143.164L139.693 28.1897V32.5714H139.122V27.1714H139.593L143.072 31.5531V27.1714H143.635Z" fill="white" fill-opacity="0.5"/>
</svg>
