<svg width="36" height="36" viewBox="0 0 36 36" fill="none" xmlns="http://www.w3.org/2000/svg">
<path d="M18 0.5625C8.36663 0.5625 0.5625 8.36775 0.5625 18C0.5625 27.6322 8.36775 35.4375 18 35.4375C27.6334 35.4375 35.4375 27.6322 35.4375 18C35.4375 8.36775 27.6322 0.5625 18 0.5625ZM26.5646 12.5089L23.7026 25.9954C23.4911 26.9516 22.9219 27.1834 22.1276 26.7334L17.7682 23.5204L15.6656 25.5454C15.4339 25.7771 15.237 25.974 14.787 25.974L15.0964 21.537L23.175 14.238C23.5271 13.9286 23.0974 13.7531 22.6327 14.0625L12.6484 20.3479L8.34525 19.0046C7.41038 18.7099 7.389 18.0697 8.54212 17.6197L25.3541 11.1364C26.1349 10.8551 26.8166 11.3265 26.5635 12.5077L26.5646 12.5089Z" fill="#635343"/>
</svg>
