<svg width="46" height="46" viewBox="0 0 46 46" fill="none" xmlns="http://www.w3.org/2000/svg">
<path d="M38.6397 13.1098C33.1197 4.59982 21.8497 2.06982 13.1097 7.35982C4.59974 12.6498 1.83974 24.1498 7.35974 32.6598L7.81974 33.3498L5.97974 40.2498L12.8797 38.4098L13.5697 38.8698C16.5597 40.4798 19.7797 41.3998 22.9997 41.3998C26.4497 41.3998 29.8997 40.4798 32.8897 38.6398C41.3997 33.1198 43.9297 21.8498 38.6397 13.1098ZM33.8097 30.8198C32.8897 32.1998 31.7397 33.1198 30.1297 33.3498C29.2097 33.3498 28.0597 33.8098 23.4597 31.9698C19.5497 30.1298 16.3297 27.1398 14.0297 23.6898C12.6497 22.0798 11.9597 20.0098 11.7297 17.9398C11.7297 16.0998 12.4197 14.4898 13.5697 13.3398C14.0297 12.8798 14.4897 12.6498 14.9497 12.6498H16.0997C16.5597 12.6498 17.0197 12.6498 17.2497 13.5698C17.7097 14.7198 18.8597 17.4798 18.8597 17.7098C19.0897 17.9398 19.0897 18.3998 18.8597 18.6298C19.0897 19.0898 18.8597 19.5498 18.6297 19.7798C18.3997 20.0098 18.1697 20.4698 17.9397 20.6998C17.4797 20.9298 17.2497 21.3898 17.4797 21.8498C18.3997 23.2298 19.5497 24.6098 20.6997 25.7598C22.0797 26.9098 23.4597 27.8298 25.0697 28.5198C25.5297 28.7498 25.9897 28.7498 26.2197 28.2898C26.4497 27.8298 27.5997 26.6798 28.0597 26.2198C28.5197 25.7598 28.7497 25.7598 29.2097 25.9898L32.8897 27.8298C33.3497 28.0598 33.8097 28.2898 34.0397 28.5198C34.2697 29.2098 34.2697 30.1298 33.8097 30.8198Z" fill="#635343"/>
</svg>
